<svg xmlns:xlink="http://www.w3.org/1999/xlink" xmlns="http://www.w3.org/2000/svg" width="1440" height="483" viewBox="0 0 1440 483" fill="none">
<g opacity="0.7" filter="url(#filter0_dd)">
<rect x="-19" y="77" width="151" height="108" rx="26" fill="white"/>
</g>
<g opacity="0.7" filter="url(#filter1_dd)">
<rect x="-104" y="241" width="192" height="108" rx="26" fill="white"/>
</g>
<g opacity="0.7" filter="url(#filter2_dd)">
<rect x="426" y="347" width="192" height="108" rx="26" fill="white"/>
</g>
<g opacity="0.3">
<rect x="450" y="369" width="25.9287" height="25.9287" rx="12.9643" fill="#8A3FFC"/>
<path d="M450 407.893C450 405.506 451.935 403.572 454.321 403.572H546.692C549.079 403.572 551.014 405.506 551.014 407.893V412.214C551.014 414.601 549.079 416.536 546.692 416.536H454.321C451.935 416.536 450 414.601 450 412.214V407.893Z" fill="#808A9D"/>
<path d="M450 427.88C450 426.686 450.879 425.719 451.964 425.719H493.951C495.036 425.719 495.915 426.686 495.915 427.88V430.04C495.915 431.234 495.036 432.201 493.951 432.201H451.964C450.879 432.201 450 431.234 450 430.04V427.88Z" fill="#CFD6E4"/>
<path d="M498.616 427.88C498.616 426.686 498.978 425.719 499.425 425.719H516.714C517.16 425.719 517.523 426.686 517.523 427.88V430.04C517.523 431.234 517.16 432.201 516.714 432.201H499.425C498.978 432.201 498.616 431.234 498.616 430.04V427.88Z" fill="#CFD6E4"/>
<path d="M521.143 427.865C521.146 426.672 521.816 425.705 522.638 425.706L554.467 425.756C555.289 425.757 555.953 426.726 555.95 427.919L555.945 430.08C555.941 431.273 555.272 432.24 554.45 432.238L522.621 432.189C521.798 432.187 521.134 431.219 521.137 430.026L521.143 427.865Z" fill="#CFD6E4"/>
<path d="M559.187 427.88C559.19 426.686 559.86 425.72 560.682 425.721L592.511 425.771C593.333 425.772 593.997 426.741 593.994 427.934L593.989 430.095C593.985 431.288 593.316 432.254 592.494 432.253L560.665 432.203C559.842 432.202 559.178 431.234 559.181 430.04L559.187 427.88Z" fill="#CFD6E4"/>
</g>
<g opacity="0.7" filter="url(#filter3_dd)">
<rect x="666" y="289" width="192" height="108" rx="26" fill="white"/>
</g>
<g opacity="0.7" filter="url(#filter4_dd)">
<rect x="1098" y="300" width="192" height="108" rx="26" fill="white"/>
</g>
<g opacity="0.7" filter="url(#filter5_dd)">
<rect x="882" y="192" width="192" height="108" rx="26" fill="white"/>
</g>
<g opacity="0.3">
<rect x="906" y="212" width="25.9287" height="25.9287" rx="12.9643" fill="#23DCF5"/>
<path d="M906 250.893C906 248.506 907.935 246.572 910.321 246.572H1002.69C1005.08 246.572 1007.01 248.506 1007.01 250.893V255.214C1007.01 257.601 1005.08 259.536 1002.69 259.536H910.321C907.935 259.536 906 257.601 906 255.214V250.893Z" fill="#808A9D"/>
<path d="M906 270.88C906 269.686 906.879 268.719 907.964 268.719H949.951C951.036 268.719 951.915 269.686 951.915 270.88V273.04C951.915 274.234 951.036 275.201 949.951 275.201H907.964C906.879 275.201 906 274.234 906 273.04V270.88Z" fill="#CFD6E4"/>
<path d="M954.616 270.88C954.616 269.686 954.978 268.719 955.425 268.719H972.714C973.16 268.719 973.523 269.686 973.523 270.88V273.04C973.523 274.234 973.16 275.201 972.714 275.201H955.425C954.978 275.201 954.616 274.234 954.616 273.04V270.88Z" fill="#CFD6E4"/>
<path d="M977.143 270.865C977.146 269.672 977.816 268.705 978.638 268.706L1010.47 268.756C1011.29 268.757 1011.95 269.726 1011.95 270.919L1011.94 273.08C1011.94 274.273 1011.27 275.24 1010.45 275.238L978.621 275.189C977.798 275.187 977.134 274.219 977.137 273.026L977.143 270.865Z" fill="#CFD6E4"/>
<path d="M1015.19 270.88C1015.19 269.686 1015.86 268.72 1016.68 268.721L1048.51 268.771C1049.33 268.772 1050 269.741 1049.99 270.934L1049.99 273.095C1049.99 274.288 1049.32 275.254 1048.49 275.253L1016.66 275.203C1015.84 275.202 1015.18 274.234 1015.18 273.04L1015.19 270.88Z" fill="#CFD6E4"/>
</g>
<g opacity="0.7" filter="url(#filter6_dd)">
<rect x="1188" y="160" width="192" height="108" rx="26" fill="white"/>
</g>
<g opacity="0.7" filter="url(#filter7_dd)">
<rect x="1264" y="20" width="192" height="108" rx="26" fill="white"/>
</g>
<g opacity="0.3">
<rect x="1288" y="42" width="25.9287" height="25.9287" rx="12.9643" fill="#3861FB"/>
<path d="M1288 80.893C1288 78.5063 1289.93 76.5716 1292.32 76.5716H1384.69C1387.08 76.5716 1389.01 78.5063 1389.01 80.893V85.2145C1389.01 87.6011 1387.08 89.5359 1384.69 89.5359H1292.32C1289.93 89.5359 1288 87.6011 1288 85.2145V80.893Z" fill="#808A9D"/>
<path d="M1288 100.88C1288 99.6864 1288.88 98.719 1289.96 98.719H1331.95C1333.04 98.719 1333.92 99.6864 1333.92 100.88V103.04C1333.92 104.234 1333.04 105.201 1331.95 105.201H1289.96C1288.88 105.201 1288 104.234 1288 103.04V100.88Z" fill="#CFD6E4"/>
<path d="M1336.62 100.88C1336.62 99.6864 1336.98 98.719 1337.43 98.719H1354.71C1355.16 98.719 1355.52 99.6864 1355.52 100.88V103.04C1355.52 104.234 1355.16 105.201 1354.71 105.201H1337.43C1336.98 105.201 1336.62 104.234 1336.62 103.04V100.88Z" fill="#CFD6E4"/>
<path d="M1359.14 100.865C1359.15 99.6715 1359.82 98.7052 1360.64 98.7065L1392.47 98.7561C1393.29 98.7574 1393.95 99.7258 1393.95 100.919L1393.94 103.08C1393.94 104.273 1393.27 105.24 1392.45 105.238L1360.62 105.189C1359.8 105.187 1359.13 104.219 1359.14 103.026L1359.14 100.865Z" fill="#CFD6E4"/>
<path d="M1397.19 100.88C1397.19 99.6864 1397.86 98.72 1398.68 98.7213L1430.51 98.771C1431.33 98.7723 1432 99.7407 1431.99 100.934L1431.99 103.095C1431.99 104.288 1431.32 105.254 1430.49 105.253L1398.66 105.203C1397.84 105.202 1397.18 104.234 1397.18 103.04L1397.19 100.88Z" fill="#CFD6E4"/>
</g>
<defs>
<filter id="filter0_dd" x="-43" y="57" width="199" height="156" filterUnits="userSpaceOnUse" color-interpolation-filters="sRGB">
<feFlood flood-opacity="0" result="BackgroundImageFix"/>
<feColorMatrix in="SourceAlpha" type="matrix" values="0 0 0 0 0 0 0 0 0 0 0 0 0 0 0 0 0 0 127 0"/>
<feOffset dy="1"/>
<feGaussianBlur stdDeviation="1"/>
<feColorMatrix type="matrix" values="0 0 0 0 0.345098 0 0 0 0 0.4 0 0 0 0 0.494118 0 0 0 0.12 0"/>
<feBlend mode="normal" in2="BackgroundImageFix" result="effect1_dropShadow"/>
<feColorMatrix in="SourceAlpha" type="matrix" values="0 0 0 0 0 0 0 0 0 0 0 0 0 0 0 0 0 0 127 0"/>
<feOffset dy="4"/>
<feGaussianBlur stdDeviation="12"/>
<feColorMatrix type="matrix" values="0 0 0 0 0.345098 0 0 0 0 0.4 0 0 0 0 0.494118 0 0 0 0.08 0"/>
<feBlend mode="normal" in2="effect1_dropShadow" result="effect2_dropShadow"/>
<feBlend mode="normal" in="SourceGraphic" in2="effect2_dropShadow" result="shape"/>
</filter>
<filter id="filter1_dd" x="-128" y="221" width="240" height="156" filterUnits="userSpaceOnUse" color-interpolation-filters="sRGB">
<feFlood flood-opacity="0" result="BackgroundImageFix"/>
<feColorMatrix in="SourceAlpha" type="matrix" values="0 0 0 0 0 0 0 0 0 0 0 0 0 0 0 0 0 0 127 0"/>
<feOffset dy="1"/>
<feGaussianBlur stdDeviation="1"/>
<feColorMatrix type="matrix" values="0 0 0 0 0.345098 0 0 0 0 0.4 0 0 0 0 0.494118 0 0 0 0.12 0"/>
<feBlend mode="normal" in2="BackgroundImageFix" result="effect1_dropShadow"/>
<feColorMatrix in="SourceAlpha" type="matrix" values="0 0 0 0 0 0 0 0 0 0 0 0 0 0 0 0 0 0 127 0"/>
<feOffset dy="4"/>
<feGaussianBlur stdDeviation="12"/>
<feColorMatrix type="matrix" values="0 0 0 0 0.345098 0 0 0 0 0.4 0 0 0 0 0.494118 0 0 0 0.08 0"/>
<feBlend mode="normal" in2="effect1_dropShadow" result="effect2_dropShadow"/>
<feBlend mode="normal" in="SourceGraphic" in2="effect2_dropShadow" result="shape"/>
</filter>
<filter id="filter2_dd" x="402" y="327" width="240" height="156" filterUnits="userSpaceOnUse" color-interpolation-filters="sRGB">
<feFlood flood-opacity="0" result="BackgroundImageFix"/>
<feColorMatrix in="SourceAlpha" type="matrix" values="0 0 0 0 0 0 0 0 0 0 0 0 0 0 0 0 0 0 127 0"/>
<feOffset dy="1"/>
<feGaussianBlur stdDeviation="1"/>
<feColorMatrix type="matrix" values="0 0 0 0 0.345098 0 0 0 0 0.4 0 0 0 0 0.494118 0 0 0 0.12 0"/>
<feBlend mode="normal" in2="BackgroundImageFix" result="effect1_dropShadow"/>
<feColorMatrix in="SourceAlpha" type="matrix" values="0 0 0 0 0 0 0 0 0 0 0 0 0 0 0 0 0 0 127 0"/>
<feOffset dy="4"/>
<feGaussianBlur stdDeviation="12"/>
<feColorMatrix type="matrix" values="0 0 0 0 0.345098 0 0 0 0 0.4 0 0 0 0 0.494118 0 0 0 0.08 0"/>
<feBlend mode="normal" in2="effect1_dropShadow" result="effect2_dropShadow"/>
<feBlend mode="normal" in="SourceGraphic" in2="effect2_dropShadow" result="shape"/>
</filter>
<filter id="filter3_dd" x="642" y="269" width="240" height="156" filterUnits="userSpaceOnUse" color-interpolation-filters="sRGB">
<feFlood flood-opacity="0" result="BackgroundImageFix"/>
<feColorMatrix in="SourceAlpha" type="matrix" values="0 0 0 0 0 0 0 0 0 0 0 0 0 0 0 0 0 0 127 0"/>
<feOffset dy="1"/>
<feGaussianBlur stdDeviation="1"/>
<feColorMatrix type="matrix" values="0 0 0 0 0.345098 0 0 0 0 0.4 0 0 0 0 0.494118 0 0 0 0.12 0"/>
<feBlend mode="normal" in2="BackgroundImageFix" result="effect1_dropShadow"/>
<feColorMatrix in="SourceAlpha" type="matrix" values="0 0 0 0 0 0 0 0 0 0 0 0 0 0 0 0 0 0 127 0"/>
<feOffset dy="4"/>
<feGaussianBlur stdDeviation="12"/>
<feColorMatrix type="matrix" values="0 0 0 0 0.345098 0 0 0 0 0.4 0 0 0 0 0.494118 0 0 0 0.08 0"/>
<feBlend mode="normal" in2="effect1_dropShadow" result="effect2_dropShadow"/>
<feBlend mode="normal" in="SourceGraphic" in2="effect2_dropShadow" result="shape"/>
</filter>
<filter id="filter4_dd" x="1074" y="280" width="240" height="156" filterUnits="userSpaceOnUse" color-interpolation-filters="sRGB">
<feFlood flood-opacity="0" result="BackgroundImageFix"/>
<feColorMatrix in="SourceAlpha" type="matrix" values="0 0 0 0 0 0 0 0 0 0 0 0 0 0 0 0 0 0 127 0"/>
<feOffset dy="1"/>
<feGaussianBlur stdDeviation="1"/>
<feColorMatrix type="matrix" values="0 0 0 0 0.345098 0 0 0 0 0.4 0 0 0 0 0.494118 0 0 0 0.12 0"/>
<feBlend mode="normal" in2="BackgroundImageFix" result="effect1_dropShadow"/>
<feColorMatrix in="SourceAlpha" type="matrix" values="0 0 0 0 0 0 0 0 0 0 0 0 0 0 0 0 0 0 127 0"/>
<feOffset dy="4"/>
<feGaussianBlur stdDeviation="12"/>
<feColorMatrix type="matrix" values="0 0 0 0 0.345098 0 0 0 0 0.4 0 0 0 0 0.494118 0 0 0 0.08 0"/>
<feBlend mode="normal" in2="effect1_dropShadow" result="effect2_dropShadow"/>
<feBlend mode="normal" in="SourceGraphic" in2="effect2_dropShadow" result="shape"/>
</filter>
<filter id="filter5_dd" x="858" y="172" width="240" height="156" filterUnits="userSpaceOnUse" color-interpolation-filters="sRGB">
<feFlood flood-opacity="0" result="BackgroundImageFix"/>
<feColorMatrix in="SourceAlpha" type="matrix" values="0 0 0 0 0 0 0 0 0 0 0 0 0 0 0 0 0 0 127 0"/>
<feOffset dy="1"/>
<feGaussianBlur stdDeviation="1"/>
<feColorMatrix type="matrix" values="0 0 0 0 0.345098 0 0 0 0 0.4 0 0 0 0 0.494118 0 0 0 0.12 0"/>
<feBlend mode="normal" in2="BackgroundImageFix" result="effect1_dropShadow"/>
<feColorMatrix in="SourceAlpha" type="matrix" values="0 0 0 0 0 0 0 0 0 0 0 0 0 0 0 0 0 0 127 0"/>
<feOffset dy="4"/>
<feGaussianBlur stdDeviation="12"/>
<feColorMatrix type="matrix" values="0 0 0 0 0.345098 0 0 0 0 0.4 0 0 0 0 0.494118 0 0 0 0.08 0"/>
<feBlend mode="normal" in2="effect1_dropShadow" result="effect2_dropShadow"/>
<feBlend mode="normal" in="SourceGraphic" in2="effect2_dropShadow" result="shape"/>
</filter>
<filter id="filter6_dd" x="1164" y="140" width="240" height="156" filterUnits="userSpaceOnUse" color-interpolation-filters="sRGB">
<feFlood flood-opacity="0" result="BackgroundImageFix"/>
<feColorMatrix in="SourceAlpha" type="matrix" values="0 0 0 0 0 0 0 0 0 0 0 0 0 0 0 0 0 0 127 0"/>
<feOffset dy="1"/>
<feGaussianBlur stdDeviation="1"/>
<feColorMatrix type="matrix" values="0 0 0 0 0.345098 0 0 0 0 0.4 0 0 0 0 0.494118 0 0 0 0.12 0"/>
<feBlend mode="normal" in2="BackgroundImageFix" result="effect1_dropShadow"/>
<feColorMatrix in="SourceAlpha" type="matrix" values="0 0 0 0 0 0 0 0 0 0 0 0 0 0 0 0 0 0 127 0"/>
<feOffset dy="4"/>
<feGaussianBlur stdDeviation="12"/>
<feColorMatrix type="matrix" values="0 0 0 0 0.345098 0 0 0 0 0.4 0 0 0 0 0.494118 0 0 0 0.08 0"/>
<feBlend mode="normal" in2="effect1_dropShadow" result="effect2_dropShadow"/>
<feBlend mode="normal" in="SourceGraphic" in2="effect2_dropShadow" result="shape"/>
</filter>
<filter id="filter7_dd" x="1240" y="0" width="240" height="156" filterUnits="userSpaceOnUse" color-interpolation-filters="sRGB">
<feFlood flood-opacity="0" result="BackgroundImageFix"/>
<feColorMatrix in="SourceAlpha" type="matrix" values="0 0 0 0 0 0 0 0 0 0 0 0 0 0 0 0 0 0 127 0"/>
<feOffset dy="1"/>
<feGaussianBlur stdDeviation="1"/>
<feColorMatrix type="matrix" values="0 0 0 0 0.345098 0 0 0 0 0.4 0 0 0 0 0.494118 0 0 0 0.12 0"/>
<feBlend mode="normal" in2="BackgroundImageFix" result="effect1_dropShadow"/>
<feColorMatrix in="SourceAlpha" type="matrix" values="0 0 0 0 0 0 0 0 0 0 0 0 0 0 0 0 0 0 127 0"/>
<feOffset dy="4"/>
<feGaussianBlur stdDeviation="12"/>
<feColorMatrix type="matrix" values="0 0 0 0 0.345098 0 0 0 0 0.4 0 0 0 0 0.494118 0 0 0 0.08 0"/>
<feBlend mode="normal" in2="effect1_dropShadow" result="effect2_dropShadow"/>
<feBlend mode="normal" in="SourceGraphic" in2="effect2_dropShadow" result="shape"/>
</filter>
</defs>
</svg>