<svg width="252" height="66" viewBox="0 0 252 66" fill="none" xmlns="http://www.w3.org/2000/svg">
<rect width="64" height="66" rx="21" fill="#7150EE"/>
<path d="M30.0303 16.825C29.8143 15.0211 28.162 13.7084 26.4202 14.225C23.9399 14.9606 21.6168 16.1828 19.5898 17.8324C16.7059 20.1793 14.5379 23.2964 13.3344 26.8262C12.1308 30.3561 11.9404 34.1557 12.785 37.7894C13.6297 41.4231 15.4751 44.7438 18.1097 47.3706C20.7443 49.9973 24.0614 51.8239 27.6806 52.6407C31.2998 53.4575 35.0746 53.2315 38.572 51.9887C42.0694 50.7459 45.1478 48.5365 47.4542 45.6139C49.0852 43.5473 50.2834 41.1832 50.9905 38.6643C51.4777 36.9288 50.1612 35.3027 48.3699 35.102C46.5752 34.901 44.9947 36.2199 44.3665 37.913C43.8849 39.2108 43.2022 40.4312 42.3377 41.5267C40.7949 43.4816 38.7356 44.9595 36.3961 45.7909C34.0566 46.6223 31.5316 46.7734 29.1106 46.227C26.6897 45.6806 24.4708 44.4588 22.7084 42.7017C20.9461 40.9446 19.7116 38.7233 19.1466 36.2926C18.5816 33.862 18.709 31.3203 19.5141 28.9591C20.3192 26.5979 21.7694 24.5128 23.6985 22.9429C24.7721 22.0691 25.9699 21.3747 27.2458 20.8791C28.9359 20.2226 30.246 18.6253 30.0303 16.825Z" fill="white"/>
<path d="M46.9785 26.3497C48.6127 25.5948 49.3507 23.6408 48.3465 22.1468C47.0077 20.155 45.32 18.4241 43.3666 17.0392C41.8826 15.9871 39.8929 16.7005 39.1105 18.3428C38.3333 19.9741 39.0578 21.9 40.4433 23.06C41.1154 23.6227 41.7304 24.2513 42.2789 24.9363C43.4115 26.3506 45.3336 27.1095 46.9785 26.3497Z" fill="white"/>
<path d="M98.8164 43.4414C98.8164 42.4388 98.4583 41.6576 97.7422 41.0977C97.0391 40.5378 95.7956 39.9583 94.0117 39.3594C92.2279 38.7604 90.7695 38.181 89.6367 37.6211C85.9518 35.8112 84.1094 33.3242 84.1094 30.1602C84.1094 28.5846 84.5651 27.1979 85.4766 26C86.401 24.7891 87.7031 23.8516 89.3828 23.1875C91.0625 22.5104 92.9505 22.1719 95.0469 22.1719C97.0911 22.1719 98.9206 22.5365 100.535 23.2656C102.163 23.9948 103.426 25.0365 104.324 26.3906C105.223 27.7318 105.672 29.2682 105.672 31H98.8359C98.8359 29.8411 98.4779 28.9427 97.7617 28.3047C97.0586 27.6667 96.1016 27.3477 94.8906 27.3477C93.6667 27.3477 92.6966 27.6211 91.9805 28.168C91.2773 28.7018 90.9258 29.3854 90.9258 30.2188C90.9258 30.9479 91.3164 31.612 92.0977 32.2109C92.8789 32.7969 94.2526 33.4089 96.2188 34.0469C98.1849 34.6719 99.7995 35.349 101.062 36.0781C104.135 37.849 105.672 40.2904 105.672 43.4023C105.672 45.8893 104.734 47.8424 102.859 49.2617C100.984 50.681 98.4128 51.3906 95.1445 51.3906C92.8398 51.3906 90.75 50.9805 88.875 50.1602C87.013 49.3268 85.6068 48.194 84.6562 46.7617C83.7188 45.3164 83.25 43.6562 83.25 41.7812H90.125C90.125 43.3047 90.5156 44.431 91.2969 45.1602C92.0911 45.8763 93.3737 46.2344 95.1445 46.2344C96.2773 46.2344 97.1693 45.9935 97.8203 45.5117C98.4844 45.0169 98.8164 44.3268 98.8164 43.4414ZM131.492 22.5625V41.1758C131.492 43.2852 131.043 45.1146 130.145 46.6641C129.246 48.2005 127.957 49.3724 126.277 50.1797C124.598 50.987 122.612 51.3906 120.32 51.3906C116.857 51.3906 114.129 50.4922 112.137 48.6953C110.145 46.8984 109.129 44.4375 109.09 41.3125V22.5625H115.984V41.4492C116.062 44.5612 117.508 46.1172 120.32 46.1172C121.74 46.1172 122.814 45.7266 123.543 44.9453C124.272 44.1641 124.637 42.8945 124.637 41.1367V22.5625H131.492ZM146.355 40.9609H142.645V51H135.789V22.5625H146.98C150.353 22.5625 152.99 23.3112 154.891 24.8086C156.792 26.306 157.742 28.4219 157.742 31.1562C157.742 33.1354 157.339 34.776 156.531 36.0781C155.737 37.3802 154.487 38.4349 152.781 39.2422L158.719 50.707V51H151.375L146.355 40.9609ZM142.645 35.668H146.98C148.283 35.668 149.259 35.3294 149.91 34.6523C150.574 33.9622 150.906 33.0052 150.906 31.7812C150.906 30.5573 150.574 29.6003 149.91 28.9102C149.246 28.207 148.27 27.8555 146.98 27.8555H142.645V35.668ZM179.52 38.9492H168.738V45.7266H181.473V51H161.883V22.5625H181.512V27.8555H168.738V33.8516H179.52V38.9492ZM198.934 43.4414C198.934 42.4388 198.576 41.6576 197.859 41.0977C197.156 40.5378 195.913 39.9583 194.129 39.3594C192.345 38.7604 190.887 38.181 189.754 37.6211C186.069 35.8112 184.227 33.3242 184.227 30.1602C184.227 28.5846 184.682 27.1979 185.594 26C186.518 24.7891 187.82 23.8516 189.5 23.1875C191.18 22.5104 193.068 22.1719 195.164 22.1719C197.208 22.1719 199.038 22.5365 200.652 23.2656C202.28 23.9948 203.543 25.0365 204.441 26.3906C205.34 27.7318 205.789 29.2682 205.789 31H198.953C198.953 29.8411 198.595 28.9427 197.879 28.3047C197.176 27.6667 196.219 27.3477 195.008 27.3477C193.784 27.3477 192.814 27.6211 192.098 28.168C191.395 28.7018 191.043 29.3854 191.043 30.2188C191.043 30.9479 191.434 31.612 192.215 32.2109C192.996 32.7969 194.37 33.4089 196.336 34.0469C198.302 34.6719 199.917 35.349 201.18 36.0781C204.253 37.849 205.789 40.2904 205.789 43.4023C205.789 45.8893 204.852 47.8424 202.977 49.2617C201.102 50.681 198.53 51.3906 195.262 51.3906C192.957 51.3906 190.867 50.9805 188.992 50.1602C187.13 49.3268 185.724 48.194 184.773 46.7617C183.836 45.3164 183.367 43.6562 183.367 41.7812H190.242C190.242 43.3047 190.633 44.431 191.414 45.1602C192.208 45.8763 193.491 46.2344 195.262 46.2344C196.395 46.2344 197.286 45.9935 197.938 45.5117C198.602 45.0169 198.934 44.3268 198.934 43.4414ZM233.074 51H226.258V39.125H216.16V51H209.305V22.5625H216.16V33.8516H226.258V22.5625H233.074V51ZM241.199 44.6133C242.241 44.6133 243.107 44.9258 243.797 45.5508C244.487 46.1628 244.832 46.9505 244.832 47.9141C244.832 48.8776 244.487 49.6719 243.797 50.2969C243.107 50.9089 242.241 51.2148 241.199 51.2148C240.145 51.2148 239.272 50.9023 238.582 50.2773C237.905 49.6523 237.566 48.8646 237.566 47.9141C237.566 46.9635 237.905 46.1758 238.582 45.5508C239.272 44.9258 240.145 44.6133 241.199 44.6133Z" fill="#362674"/>
</svg>
